<mxfile host="app.diagrams.net" modified="2024-06-22T07:15:04.520Z" agent="Mozilla/5.0 (Windows NT 10.0; Win64; x64; rv:127.0) Gecko/20100101 Firefox/127.0" version="24.4.10" etag="vz2ng2ljVnPO9ma5kE-N" type="github">
  <diagram name="Page-1" id="Ga56CTa9ZH4yMpa2cVuG">
    <mxGraphModel>
      <root>
        <mxCell id="0" />
        <mxCell id="1" parent="0" />
      </root>
    </mxGraphModel>
  </diagram>
</mxfile>
